# xmcd CD database file
#
# Track frame offsets:
#	150
#	1502
#	36518
#	54586
#	70454
#	92292
#	114470
#	129520
#	140498
#	161136
#	181820
#	202145
#	212358
#	261649
#
# Disc length: 3862 seconds
#
# Revision: 3
# Processed by: cddbd v1.5.2PL0 Copyright (c) Steve Scherf et al.
# Submitted via: CDex 1.70beta2
#
DISCID=c80f140e
DTITLE=John Le Hooker Jr - Live In Istanbul
DYEAR=2010
DGENRE=Blues
TTITLE0=Introduction
TTITLE1=Suspicious
TTITLE2=People Want A Change
TTITLE3=It's A Shame
TTITLE4=Fed Up
TTITLE5=Funky Funk
TTITLE6=You Make My Life Brand New
TTITLE7=They Hatin' On Me
TTITLE8=One Eye Opened
TTITLE9=Wait Until My Chance Come
TTITLE10=Maudie
TTITLE11=Boom Boom
TTITLE12=Doin' The Boogie
TTITLE13=Talk Too Much
EXTD=YEAR: 2010
EXTT0=
EXTT1=
EXTT2=
EXTT3=
EXTT4=
EXTT5=
EXTT6=
EXTT7=
EXTT8=
EXTT9=
EXTT10=
EXTT11=
EXTT12=
EXTT13=
PLAYORDER=
